<svg width="32" height="21" viewBox="0 0 32 21" fill="none" xmlns="http://www.w3.org/2000/svg">
    <path d="M29.63 21H2.38A2.39 2.39 0 0 1 0 18.56V2.44A2.39 2.39 0 0 1 2.38 0h27.25A2.39 2.39 0 0 1 32 2.44v16.12A2.39 2.39 0 0 1 29.62 21Z"
          fill="#41479B"/>
    <path d="M0 5h32v11.06H0V5Z" fill="#FF4B55"/>
    <path d="M23.31 14.69v-.81h-.25v-.5h-.31v-.5h-.25v-.57h-.75v-1.56l.25-.25v-.75h-.25v-.56h-.25v-.75h-.31v-.56h-.25v-.5h-.25v-.25h-.5v.25h-.25v.5h-.32v.56h-.25v.75h-.25v.56h-1.56v-.81h-.25v-.75h-.25v-.81h-.25v-.5h-.31V6.3h-.25v-.25h-.13v-.25h-.25v.25h-.12v.25h-.25v.57h-.31v.5h-.25v.8h-.25v.76h-.25v.81h-1.56v-.56h-.26v-.75h-.24v-.56h-.32v-.5h-.25v-.25h-.5v.25h-.25v.5h-.25v.56h-.31v.75h-.25v.56H10v.75l.25.25v1.56H9.5v.56h-.25v.5h-.31v.5h-.25v.82h-.25v.75h15.12v-.75h-.25Z"
          fill="#F5F5F5"/>
</svg>