<svg width="32" height="21" viewBox="0 0 32 21" fill="none" xmlns="http://www.w3.org/2000/svg">
    <path d="M29.63 0H2.38A2.39 2.39 0 0 0 0 2.44V7h32V2.44A2.39 2.39 0 0 0 29.62 0Z" fill="#FAB446"/>
    <path d="M0 18.56A2.39 2.39 0 0 0 2.38 21h27.25A2.39 2.39 0 0 0 32 18.56V14H0v4.56Z" fill="#73AF00"/>
    <path d="M0 7h32v7H0V7Z" fill="#F5F5F5"/>
    <path d="M16 13.44a3 3 0 1 1-.86-5.94 3 3 0 0 1 .86 5.94Zm0-5.38a2.44 2.44 0 1 0 0 4.88 2.44 2.44 0 0 0 0-4.88Z"
          fill="#41479B"/>
    <path d="M16 10.84a.34.34 0 1 0 0-.68.34.34 0 0 0 0 .68Z" fill="#41479B"/>
    <path d="m16 10.56-.88.06-1.8-.06v-.12l1.8-.06.88.06v.12Zm0 0 .88.06 1.8-.06v-.12l-1.8-.06-.88.06v.12Z"
          fill="#41479B"/>
    <path d="m15.94 10.5-.06-.88.06-1.8h.12l.07 1.8-.07.88h-.12Zm0 0-.06.88.06 1.8h.12l.07-1.8-.07-.88h-.12Z"
          fill="#41479B"/>
    <path d="M15.94 10.56 15.3 10l-1.25-1.38.06-.06 1.38 1.25.56.63-.12.12ZM15.94 10.56l.56.63 1.38 1.25.06-.06L16.69 11l-.63-.56-.12.12Z"
          fill="#41479B"/>
    <path d="m15.94 10.44.56-.63 1.38-1.25.06.06L16.69 10l-.63.56-.12-.12ZM15.94 10.44l-.63.56-1.25 1.38.06.06 1.38-1.25.56-.63-.12-.12Z"
          fill="#41479B"/>
    <path d="m16 10.56-.75.38-1.69.62-.06-.06 1.69-.81.81-.25v.12Zm0 0 .81-.25 1.69-.81-.06-.06-1.69.62-.75.38v.12Z"
          fill="#41479B"/>
    <path d="m15.94 10.5-.38-.75-.62-1.69L15 8l.81 1.69.25.81h-.12Zm0 0 .25.81L17 13l.06-.06-.62-1.69-.38-.75h-.12Z"
          fill="#41479B"/>
    <path d="m16 10.56-.81-.25-1.69-.81.06-.06 1.69.62.75.38v.12Zm0 0 .75.38 1.69.62.06-.06-1.69-.81-.81-.25v.12Z"
          fill="#41479B"/>
    <path d="m15.94 10.5.25-.81L17 8l.06.06-.62 1.69-.38.75h-.12Zm0 0-.38.75-.62 1.69.06.06.81-1.69.25-.81h-.12Z"
          fill="#41479B"/>
    <path d="M16 10.96a.46.46 0 1 0 0-.92.46.46 0 0 0 0 .92Z" fill="#F5F5F5"/>
    <path d="M16 10.78a.27.27 0 1 0 0-.55.27.27 0 0 0 0 .54Z" fill="#41479B"/>
</svg>