<svg width="32" height="21" viewBox="0 0 32 21" fill="none" xmlns="http://www.w3.org/2000/svg">
    <path d="M0 18.56A2.39 2.39 0 0 0 2.38 21h27.25A2.39 2.39 0 0 0 32 18.56V14H0v4.56Z" fill="#73AF00"/>
    <path d="M29.63 0H2.38A2.39 2.39 0 0 0 0 2.44V7h32V2.44A2.39 2.39 0 0 0 29.62 0Z" fill="#464655"/>
    <path d="M0 7h32v7H0V7Z" fill="#C8414B"/>
    <path d="M0 6.63h32v1.12H0V6.62Zm0 6.62h32v1.13H0v-1.13Z" fill="#F5F5F5"/>
    <path d="M18.94 5.88c.43-.94.93-3.07.93-3.07s-1.37 1.69-1.8 2.63c-.13.18-.07.37.05.56l-5.06 10.38.31.18 5.07-10.43c.25 0 .43-.07.5-.25Z"
          fill="#F5F5F5"/>
    <path d="M13.06 5.88c-.44-.94-.94-3.07-.94-3.07s1.38 1.69 1.82 2.63c.12.18.06.37-.06.56l5.06 10.38-.32.18-5.06-10.43c-.25 0-.44-.07-.5-.25Z"
          fill="#F5F5F5"/>
    <path d="M18.75 10.5c0 3.06-2.25 5.5-2.75 5.5s-2.75-2.44-2.75-5.5S15.5 5 16 5s2.75 2.44 2.75 5.5Z"
          fill="#C8414B"/>
    <path d="M18.19 13.19c.37-.81.56-1.75.56-2.69s-.19-1.88-.56-2.69a7.64 7.64 0 0 0-.57 2.69c0 .94.25 1.88.57 2.69ZM13.8 7.8a6.47 6.47 0 0 0-.56 2.69c0 .94.19 1.88.56 2.69.31-.81.56-1.75.56-2.69s-.24-1.88-.56-2.69Z"
          fill="#464655"/>
    <path d="M16 11.32c.3 0 .55-.36.55-.82 0-.46-.25-.82-.55-.82-.3 0-.55.36-.55.82 0 .46.25.82.55.82Z"
          fill="#F5F5F5"/>
    <path d="M16.06 5v4.69a5.6 5.6 0 0 0 .44-2.38c0-1.06-.25-2-.44-2.31Zm-.12 0a6.5 6.5 0 0 0 0 4.69V5Zm.12 6.31V16c.19-.31.44-1.25.44-2.31a5.6 5.6 0 0 0-.44-2.38Zm-.12 0a5.6 5.6 0 0 0-.44 2.38c0 1.12.25 2 .44 2.31v-4.69Z"
          fill="#F5F5F5"/>
</svg>