<svg width="32" height="21" viewBox="0 0 32 21" fill="none" xmlns="http://www.w3.org/2000/svg">
    <path d="M29.63 0H2.38A2.39 2.39 0 0 0 0 2.44v16.12A2.39 2.39 0 0 0 2.38 21h27.25A2.39 2.39 0 0 0 32 18.56V2.44A2.39 2.39 0 0 0 29.62 0Z"
          fill="#F5F5F5"/>
    <path d="M14.38 10.5.8.62C.31 1.06 0 1.7 0 2.45v16.12A2.39 2.39 0 0 0 2.38 21h12L4.94 10.5h9.43Zm-1.63 9.75H.69V1.44L12.13 9.8H3.3L4.44 11l8.31 9.25Z"
          fill="#41479B"/>
    <path d="M4.44 11 3.3 9.81h8.81L.7 1.44v18.81h12.06L4.44 11Z" fill="#FF4B55"/>
    <path d="m4.19 13 .43.94.88-.56.06.06-.06 1 1-.06.06.06-.56.81.88.44v.12l-.88.44.56.81-.06.13-1-.07.06 1-.06.07-.88-.63-.43.94h-.07l-.43-.94-.88.63-.06-.07.06-1-1 .07-.06-.13.56-.81-.87-.44v-.12l.87-.44-.56-.81.06-.06 1 .06-.06-1 .06-.06.88.56.44-.94h.06Zm1.18-5.25L5 7.5l.31-.38-.5-.06.19-.5-.5.13v-.5l-.38.31-.25-.44-.25.44-.37-.31-.06.5-.44-.13.13.5-.44.07.31.37-.38.25c-.5-.25-.93-.56-1.25-.94a2.75 2.75 0 1 0 5.5 0c-.37.38-.8.69-1.25.94Z"
          fill="#F5F5F5"/>
</svg>