<svg width="32" height="21" viewBox="0 0 32 21" fill="none" xmlns="http://www.w3.org/2000/svg">
    <path d="M29.63 0H2.38A2.39 2.39 0 0 0 0 2.44v16.12A2.39 2.39 0 0 0 2.38 21h27.25A2.39 2.39 0 0 0 32 18.56V2.44A2.39 2.39 0 0 0 29.62 0ZM9.93 18.75a.56.56 0 0 1-.56.56H2.2a.56.56 0 0 1-.57-.56V2.25a.56.56 0 0 1 .57-.56h7.18a.56.56 0 0 1 .57.56v16.5Zm20.44 0a.56.56 0 0 1-.56.56H12.13a.56.56 0 0 1-.57-.56V2.25a.56.56 0 0 1 .56-.56h17.7a.56.56 0 0 1 .55.56v16.5Z"
          fill="#FFD250"/>
    <path d="M29.81 1.69H12.13a.56.56 0 0 0-.57.56v16.5c0 .31.25.56.56.56h17.7a.56.56 0 0 0 .55-.56V2.25a.56.56 0 0 0-.56-.56Z"
          fill="#963C3C"/>
    <path d="M2.19 1.69a.56.56 0 0 0-.56.56v16.5c0 .31.25.56.56.56H5.8V1.7H2.2Z" fill="#5AA587"/>
    <path d="M9.38 1.69H5.8V19.3h3.57a.56.56 0 0 0 .56-.56V2.25a.56.56 0 0 0-.56-.56Z" fill="#FF7350"/>
    <path d="M24.63 14.94c-.07-.13.06-.31.25-.5l.12-.31c-.13 0-.25.06-.38-.13l-.06-.19.19-.37-.56-.44c-.32-.31-.69-.5-1.07-.44-.06.38.13.63.38.94l.19.25c.31.44.25 1.25.18 1.31-.06.13-.25.38-.56.31-.18 0-.31 0-.43.13l-.13.19v.06l.31-.13h.13c.25.25.43.07.5 0h.06c.25.2.5 0 .5 0h.13l.25.07.12-.13-.06-.31-.07-.31Z"
          fill="#FFD250"/>
    <path d="M27.13 7.13h-.2l-.05.18a.07.07 0 0 1 .03.1.07.07 0 0 1-.1.03L26.13 7c-.5-.38-1.38-1-2.13-1.13-.94-.06-1.75.2-1.94.75-.25.57.25 1.07.25 1.07v.12c-.12.25 0 .44.07.5l.12-.12c.13-.13.31-.06.56.06l.5.13c.5.12 1.13.06 1.63-.07l.56-.06c.44-.06.88.13 1 .44.06.12.06.44-.38.75-.75.56-4.37.31-4.56.25l.19.19a.1.1 0 1 1 0 .18h-.38v.38a.06.06 0 0 1-.06.06l-.56-.19-.44.31a.07.07 0 0 1-.1.04.07.07 0 0 1-.02-.1l-.13-.43-.18.37-.07.06-.12-.06-.13-.25-.31.31a.07.07 0 0 1-.1.03.07.07 0 0 1-.02-.09l-.13-.25-.25.31h-.13v-.06l-.06-.44-.31.13a.07.07 0 0 1-.06-.13l.25-.62-.38.31c-.25.25-.62.5-.87 1.06-.19.32-.32.94-.13 1.5.25.5.69.88 1.32 1.13l-.07-.25.13-.88.06-.06.06.13-.06.8.19.7.18.93c-.12.38-.56.5-1 .38l-.3.12c-.13.07-.13.19-.13.32v.06c.06.06.18 0 .25-.06l.12.06c.19.19.44 0 .44 0h.13l.18.06c.13.06.32-.06.32-.13h.06c.31.13.43.07.43.07.25-.19.13-.69.13-.69a.07.07 0 0 1-.03-.1.07.07 0 0 1 .1-.02.85.85 0 0 0 .56-.44l-.38-.19c-.13-.19-.06-.5.19-.75.37-.44.62-1.38.56-1.75a.1.1 0 0 1 .19 0c0 .31-.13 1-.38 1.5l.94-.38 1.06-.43a1.66 1.66 0 0 1 1.75.43l.82.63.43.31c.38.25.38.5.38.75v.25c.06.44-.25.5-.44.5a1.3 1.3 0 0 0-.13.07c-.18 0-.37.06-.43.24l-.07.07.32-.06a.06.06 0 0 1 .06.06l.13.06c.12.06.25-.06.3-.06h.13c.07.06.19.12.25.06l.13-.06.06-.07.06.07.25.12.13-.06c.06-.06.06-.19-.07-.31l-.12-.5c.06-.19.13-.31.25-.38.31-.18.38-.37.31-.37l-.06-.06c-.06 0-.31 0-.5-.38-.19-.31 0-.87.19-1.44l.31-.93c.13-.88-.38-1.57-.44-1.57l.07-.12c.37-.31.5-.69.5-1-.07-.31-.38-.5-.63-.63-.31-.12-.88-.06-1.44 0-.43.07-.87.13-1.12.07a.34.34 0 0 1-.32-.2l-.06-.24-.25.19h-.12l-.07-.32c0-.12.13-.25.2-.3-.32-.13-.57.12-.57.18h-.13c-.12-.13-.25-.31-.25-.5s.13-.31.25-.38l.32-.06.18.19c.13-.13.13-.38.13-.38l.06-.06h.07c.18 0 .3.06.43.19.13.19.19.44.13.62.37-.18.31-.56.31-.56a.09.09 0 1 1 .13-.12c.3.12.43.43.5.68l.06-.25a.1.1 0 0 1 .18 0c.13.25.32.38.44.44L25.5 7a.07.07 0 0 1 .09-.1.07.07 0 0 1 .04.04l.43.25c.13.18.32.31.57.43h.5c.12 0 .12-.06.18-.12v-.31l-.18-.07Zm-10 1.18 1.18.25a.07.07 0 1 1 .07.13h.37l-.19-.25c-.12 0-.68 0-1.18-.25L17 8.06l-.06.13c.06.06.06.12.18.12ZM19 7.12l-.06.07.06.12h.19v-.18H19Z"
          fill="#FFD250"/>
    <path d="m18.19 9.13.18.24.07-.12.25-.06h.06l.06.12c.07.13-.06.44-.12.63l.18-.07h.07l.06.07v.37l.25-.31h.06l.07.06.12.25.25-.25.06-.06.07.06.12.25.25-.43.06-.07.07.07.18.5.38-.2h.12l.38.13V10a.07.07 0 0 1-.03-.1.07.07 0 0 1 .09-.02h.25l-.13-.13v-.06c-.18 0-.37 0-.62-.13l-.13.19a.07.07 0 0 1-.03.1.07.07 0 0 1-.09-.04l-.5-.31-.06.25a.06.06 0 0 1-.13 0l-.31-.31-.31.25a.07.07 0 1 1-.13-.07l-.12-.37a.07.07 0 0 1 .08-.1.07.07 0 0 1 .04.04l.13.31.25-.25h.12l.25.25.07-.19.06-.06h.06l.5.37.13-.18.12-.07.63.2-.13-.5-.44-.26-.06.13a.07.07 0 0 1-.03.1.07.07 0 0 1-.1-.04l-.18-.19-.07.19a.07.07 0 0 1-.03.1.07.07 0 0 1-.09-.04l-.31-.25a.09.09 0 0 1-.03-.06.09.09 0 0 1 .06-.08.09.09 0 0 1 .1.02l.18.18V8.7a.07.07 0 0 1 .09-.1.07.07 0 0 1 .04.03l.3.2.07-.2a.06.06 0 0 1 .13 0l.56.38-.07-.56-.5-.38v.25a.07.07 0 0 1-.03.1.07.07 0 0 1-.09-.04l-.31-.25-.13.2-.06.05-.25-.18-.06.31a.06.06 0 0 1-.13 0l-.31-.19v.19a.07.07 0 0 1-.03.1.07.07 0 0 1-.1-.04l-.43-.31.06-.13h.13l.18.2.07-.13a.07.07 0 0 1 .08-.1.07.07 0 0 1 .04.04l.31.18v-.37a.1.1 0 0 1 .19 0c0 .06.13.18.25.18l.06-.24.07-.07.06.07.31.25-.06-.38a.1.1 0 0 1 .06-.13.1.1 0 0 1 .13.07c.18.37.5.56.62.62.06-.94-.19-1.31-.19-1.31a.06.06 0 1 1 0-.13c.19-.06.25-.25.32-.37-.32.31-.88.44-1.13.5l.13.19a.07.07 0 0 1 .01.11.07.07 0 0 1-.05.02.07.07 0 0 1-.03 0l-.75-.07.07.06v.13h-.07c-.25 0-.5-.13-.68-.19l-.07.19-.25.06-.18-.06-.13-.25.19-.25c.12-.07.31.06.5.12.12.06.31.19.5.19l-.13-.19a.07.07 0 0 1 .09-.1.07.07 0 0 1 .04.04s.18.12.68.12L20.5 7a.07.07 0 0 1-.01-.12.07.07 0 0 1 .05-.01.07.07 0 0 1 .02 0s.69-.12 1.13-.43l-.25.06-.07-.06c-.18-.25-.37-.32-.5-.38l-.18.38h-.13c-.19-.25-.37-.32-.5-.38a.71.71 0 0 1-.19.44h-.12c-.38-.38-.63-.25-.75-.19v.19c-.19.38-1.25.44-1.44.44h-.12v-.25l-.19-.13-.19.07c-.06.06-.12.25-.06.43.12.32.5.69.69.88v-.07a.1.1 0 0 1 .06-.12.1.1 0 0 1 .12.06l.2.25.05-.31.07-.06.12.06.75 1v.06l-.12.07c-.32-.07-.75.06-.75.06a.07.07 0 1 1-.07-.13l.07-.12c-.44 0-.88-.13-1.07-.19l-.12.38h.44l.06.12-.13.13.38-.07.06.06.13.2.12-.2.07-.06.06.06Zm-1.07 4.3c.32.26.57 0 .75-.18a1.87 1.87 0 0 1-.8-1.19l-.88-.81-.07.12v.25l-.06.25.07.25-.07.07c.07.06.13.18.13.43l.12.38.13-.06.31.18a.64.64 0 0 0 .38.32Zm-1.68-2.24-.38-.07.06.13.07.06-.07.06-.06.13.06.06a.06.06 0 1 1 0 .13v.12l.07.06a.06.06 0 1 1 0 .13v.06l.06.06.31.07h.25l.13-.13v-.69l.06-.06.06-.19v-.06l-.62.13Zm.75-5.94c-.32.19-1.07.81-1.07 2.37v2.94h.63v-.31c0-3.13.31-4.5.44-5Z"
          fill="#FFD250"/>
    <path d="M16.25 10.63c0-.13-.13-.26-.19-.32l-.12.06-.06.2.06.06-.06.06c-.13.06-.57.12-.88 0l-.06-.13.06-.18h-.12l-.25.06v.19c.06.25.3.37.8.37.32 0 .57-.06.76-.19l.06-.18Zm-.75 2 .13-.07h.24l.07-.12h-.44v-.07h-.06l-.07.07H15v.12h.25l.13.06v.07l-.2.31c.13.13.2.44 0 .69h-.12l-.12-.13-.07.07v.12l.26.13.12.06-.06.06-.13.13.25.06.06.06.07.25.12-.25.06-.06.2-.06-.13-.13a.07.07 0 0 1-.03-.1.07.07 0 0 1 .09-.02l.31-.13-.06-.12-.06-.07-.06.13a.1.1 0 0 1-.2 0c-.18-.25-.12-.56 0-.69l-.18-.31v-.07Z"
          fill="#FFD250"/>
    <path d="M27.44 7.13c-.07-.07-.13-.2-.32-.2l-.3.07-.07.19-.5-.32c-.56-.43-1.44-1.06-2.25-1.12a2.37 2.37 0 0 0-1.88.44v-.13L22.07 6H22v.06a.9.9 0 0 1-.5.25c-.31-.37-.69-.37-.69-.37l-.06.06-.13.25c-.25-.38-.68-.31-.68-.31a.07.07 0 1 0-.07.12c.07.07 0 .19-.06.25-.56-.43-1-.12-1-.12v.25c-.06.18-.68.31-1.18.31l-.07-.19-.25-.18c-.12 0-.31 0-.37.12-.13.13-.13.31-.07.63a3 3 0 0 0 .75 1L17.45 8c-.13-.06-.38-.13-.5-.06-.13.06-.13.12-.13.25 0 .06 0 .19.19.25l-.19.5a.07.07 0 0 0-.03.1.07.07 0 0 0 .1.02h.37l-.06.19a.09.09 0 1 0 .12.13l.38-.13.25.31H18l.06-.06.07-.12.18.18-.06.07c-.31.25-.69.56-1 1.06-.13.31-.25.69-.19 1.12L16.2 11l.12-.13.13-.24c0-.26-.19-.38-.31-.44l-.2-.07a14.25 14.25 0 0 1 .5-5.06h-.12s-1.31.38-1.37 2.57l.06 2.56c-.19 0-.38 0-.5.12l-.06.32c.06.25.25.37.5.43v.25l-.07.19.13.19-.06.12.06.13v.19l.13.12c-.2-.06-.26 0-.32.13-.06.06 0 .25.06.3l.26.07-.13.19a.06.06 0 1 0 0 .12s.19.19.13.44l-.13-.06h-.25c-.06.06-.13.25-.06.31.06.13.12.25.25.25l-.13.13a.07.07 0 0 0-.03.09.07.07 0 0 0 .1.03l.3.13.2.3h.12l.19-.3.37-.13a.06.06 0 1 0 0-.13l-.12-.12c.12 0 .25-.13.25-.25.06-.06 0-.25-.06-.31h-.2l-.12.06c-.12-.25.07-.44.07-.44a.06.06 0 1 0 0-.12l-.13-.19.25-.06.06-.07c0 .38.25.57.25.57l.13-.07.19.13.37.37.38.07c.3 0 .5-.25.62-.38.22.13.45.24.69.31l.06.32c.13.31.25.62.19.81-.06.31-.56.31-.81.31-.2-.06-.32 0-.44.13a.57.57 0 0 0-.19.44l.13.25.37-.07c.19.19.38.13.5 0a.44.44 0 0 0 .31.13l.38-.13c.31.13.5.07.5 0 .31-.18.25-.62.19-.81.56-.12.75-.62.75-.62v-.13h-.07c-.18.06-.3 0-.37-.06-.13-.13-.06-.38.12-.56l.13-.2 1.12-.37 1.07-.43.3-.07c-.05.44.2.75.45 1.06l.18.26c.25.3.2 1.06.2 1.12-.07.06-.2.25-.45.19-.18 0-.43.06-.56.19-.12.06-.12.18-.12.3l.06.2c.12.06.31 0 .44-.07l.3.13.32-.13c.19.13.44.06.56 0h.82l.18.13c.2.06.32-.07.44-.13.13.13.19.13.31.13l.25-.13.2.13h.12l.18-.07c.13-.12.07-.37-.06-.5l-.06-.43.19-.25c.25-.13.37-.38.37-.5L27.2 14h-.13c-.12-.06-.25-.06-.37-.38-.19-.24 0-.74.18-1.24l.25-1a1.76 1.76 0 0 0-.37-1.57c.44-.44.56-.81.5-1.12a1.05 1.05 0 0 0-.69-.75c-.37-.19-.93-.07-1.5 0H24l-.25-.07v-.25a.07.07 0 0 0 .01-.11.07.07 0 0 0-.05-.02.07.07 0 0 0-.02.01c-.19 0-.31.06-.38.19v-.07c0-.18.19-.3.19-.3a.1.1 0 1 0 0-.2.7.7 0 0 0-.81.13c-.13-.06-.13-.19-.13-.31 0-.07 0-.19.19-.25h.13l.18.12a.06.06 0 0 0 .07.06c.18-.12.25-.3.3-.43l.26.12c.19.19.06.56.06.63l.06.06h.07c.37-.13.5-.44.56-.63.25.2.25.57.25.57a.07.07 0 0 0 .08.1.07.07 0 0 0 .04-.04l.25-.19c.25.31.63.44.63.44h.12v-.13l-.06-.18.19.18.62.38c.32.12.5.12.63.06.12-.06.25-.12.25-.25v-.44Zm-.13.37c-.06.06-.06.13-.18.13h-.5a1.36 1.36 0 0 1-.57-.44l-.43-.25a.07.07 0 1 0-.13.06l.06.25a.96.96 0 0 1-.43-.44.1.1 0 0 0-.2 0l-.05.25c-.07-.25-.2-.56-.5-.68l-.13.06v.06s.06.38-.31.56c.06-.18 0-.43-.13-.62a.57.57 0 0 0-.43-.19h-.07l-.06.06s0 .25-.13.38l-.18-.19-.32.06a.42.42 0 0 0-.25.38c0 .18.13.37.25.5h.13c0-.07.25-.32.56-.19-.06.06-.18.19-.18.31l.06.32h.12l.25-.2.07.26a.34.34 0 0 0 .3.18c.26.07.7 0 1.13-.06a3.67 3.67 0 0 1 1.44 0c.25.13.56.31.63.63 0 .31-.13.68-.5 1l-.07.12c.07 0 .57.69.44 1.56l-.31.94c-.19.57-.38 1.13-.19 1.44.19.38.44.38.5.38l.06.06c.07 0 0 .19-.31.37-.13.07-.19.19-.25.38l.13.5c.12.12.12.25.06.31l-.13.06-.25-.12-.06-.06-.06.06-.13.06c-.06.06-.18 0-.25-.06h-.12c-.07 0-.19.12-.32.06l-.12-.06a.06.06 0 0 0-.06-.06l-.32.06.07-.06c.06-.2.25-.25.43-.25l.13-.07c.19 0 .5-.06.44-.5v-.25c0-.25 0-.5-.38-.75l-.43-.31-.82-.62c-.5-.5-1.06-.63-1.75-.44l-1.06.44-.94.37c.25-.5.38-1.19.38-1.5l-.13-.06-.06.06c.06.38-.19 1.31-.56 1.75-.25.25-.32.56-.19.75l.38.19a.85.85 0 0 1-.57.44.07.07 0 0 0-.06.12s.13.5-.13.69c0 0-.12.06-.43-.06h-.07c0 .06-.18.18-.3.12l-.2-.06h-.12s-.25.19-.44 0l-.12-.06c-.07.06-.19.12-.25.06v-.06c0-.13 0-.25.12-.32l.32-.12c.43.12.87 0 1-.38l-.2-.93-.18-.7.06-.8a.07.07 0 0 0-.03-.1.07.07 0 0 0-.1.03l-.12.88.07.25a2.37 2.37 0 0 1-1.32-1.13 1.97 1.97 0 0 1 .13-1.5c.25-.56.62-.81.87-1.06l.38-.31-.25.62a.07.07 0 0 0-.03.1.07.07 0 0 0 .09.03l.31-.13.07.44a.07.07 0 0 0 .03.1.07.07 0 0 0 .09-.04l.25-.31.13.25a.07.07 0 0 0 .03.1.07.07 0 0 0 .09-.04l.31-.31.13.25.12.06.07-.06.18-.38.13.44a.06.06 0 1 0 .12 0l.44-.25.56.19h.07v-.44H22a.1.1 0 0 0 0-.19l-.19-.18c.19.06 3.82.31 4.57-.25.43-.32.43-.63.37-.75-.13-.32-.56-.5-1-.44l-.56.06c-.5.13-1.13.19-1.63.06l-.5-.12c-.25-.13-.43-.19-.56-.06l-.13.12a.42.42 0 0 1-.06-.5V7.7s-.5-.5-.25-1.07c.19-.56 1-.8 1.94-.75.75.13 1.63.75 2.13 1.13l.68.44.07-.07v-.06l.06-.19h.18l.2.07v.31Zm-2.69 8.19-.25-.06h-.12s-.25.18-.5 0h-.06c-.07.06-.25.24-.5 0h-.13l-.31.12v-.06l.13-.19c.12-.13.25-.13.43-.13.32.07.5-.18.57-.3a1.8 1.8 0 0 0-.2-1.32l-.18-.25c-.25-.31-.44-.56-.38-.94.38-.06.75.13 1.07.44l.56.44-.19.37.07.19c.12.19.25.13.37.13l-.13.3c-.18.2-.3.38-.25.5l.07.32.06.31-.13.13ZM25 14.5c.13-.19.25-.31.19-.44l-.25-.06-.19-.06v-.13l.13-.25.18.13.38.25c.31.25.31.37.31.62v.25c.06.25-.06.31-.25.31l-.13.07h-.06a.68.68 0 0 0-.43.18l-.07-.18-.06-.32.25-.37Zm-8.56-1.56-.13.06-.12-.38c0-.24-.07-.37-.13-.43l.06-.07-.06-.24.06-.26v-.24l.07-.13.87.81.13.32c.12.37.37.62.68.87-.18.19-.43.44-.75.19a.64.64 0 0 1-.37-.31l-.31-.2Zm-.75.75a.1.1 0 0 0 .18 0l.07-.13.06.06.06.13-.31.12-.06.07V14l.12.13-.19.06-.06.06-.12.25-.07-.25-.06-.06-.25-.07.13-.12a.07.07 0 0 0 .03-.1.07.07 0 0 0-.1-.02l-.25-.13v-.13l.07-.06.12.13h.13c.18-.25.12-.57 0-.69l.18-.31v-.07l-.12-.06H15v-.12h.38l.06-.07h.06v.07h.44l-.06.12h-.26l-.12.06v.07l.19.31c-.13.12-.19.44 0 .69ZM16 11.3l-.06.07v.68l-.13.13h-.25l-.31-.06-.06-.07v-.18l-.07-.07v-.12a.06.06 0 1 0 0-.13l-.06-.06.06-.12.07-.07-.07-.06-.06-.12.38.06.62-.13v.07l-.06.18Zm-.56-.31c-.5 0-.75-.13-.82-.38v-.18l.26-.07H15l-.06.2.06.12c.31.12.75.06.88 0l.06-.06-.06-.07.06-.18.12-.07c.07.07.19.19.19.32l-.06.18c-.19.13-.44.19-.75.19Zm.31-.44h-.63V7.63c0-1.57.76-2.2 1.07-2.38a17.63 17.63 0 0 0-.44 5.31Zm2.31-1.44-.12.2-.13-.2-.06-.06-.38.06.13-.12-.06-.13H17l.13-.37c.18.06.62.19 1.06.19l-.07.12v.07l.07.06s.43-.13.75-.06l.12-.07v-.06l-.75-1-.12-.06-.07.06-.06.31-.18-.25h-.13l-.06.07v.06c-.19-.19-.57-.56-.69-.88-.06-.18 0-.37.06-.43l.19-.07.19.13v.25h.12c.19 0 1.25-.06 1.44-.44v-.19c.13-.06.38-.18.75.19h.13a.71.71 0 0 0 .18-.44c.13.07.32.13.5.38a.06.06 0 0 0 .13 0l.18-.38c.13.07.32.13.5.38l.07.06.25-.06c-.44.31-1.13.44-1.13.44a.07.07 0 0 0-.1.08.07.07 0 0 0 .04.04l.13.13c-.5 0-.7-.13-.7-.13l-.12-.06v.12l.13.19c-.19 0-.38-.12-.5-.19-.19-.06-.38-.18-.5-.12l-.19.25.13.25.18.06.25-.06.07-.19c.18.06.43.19.68.19h.07V7.3l-.07-.06.75.06a.1.1 0 1 0 .07-.18L20.75 7c.25-.06.81-.19 1.13-.5-.07.13-.13.31-.32.38a.06.06 0 1 0 0 .12s.25.38.19 1.31a1.44 1.44 0 0 1-.63-.62H21l-.06.06.06.38-.31-.26-.07-.06-.06.07-.06.25c-.13 0-.25-.13-.25-.2l-.13-.05-.06.06v.37l-.31-.19h-.06l-.07.07-.06.12-.18-.19a.11.11 0 0 0-.2.13l.45.31h.06l.06-.06v-.19l.31.19h.13l.06-.31.25.18.06-.06.13-.19.31.26h.06l.07-.07v-.25l.5.38.06.56-.57-.38a.06.06 0 0 0-.12 0l-.06.2-.32-.2a.07.07 0 1 0-.12.07v.18l-.19-.18a.09.09 0 0 0-.12.12l.31.25h.06l.07-.06.06-.19.18.19a.07.07 0 1 0 .13-.06l.06-.13.44.25.13.5-.63-.19-.13.07-.12.18-.5-.37h-.06l-.07.06-.06.19-.25-.25h-.12l-.25.25-.13-.31h-.12v.06l.12.37a.07.07 0 0 0 .09.1.07.07 0 0 0 .04-.03l.31-.25.38.3h.06l.06-.24.5.31a.06.06 0 0 0 .06 0l.07-.06.12-.19c.25.13.44.13.63.13v.06l.12.12h-.25a.07.07 0 1 0-.06.13v.31l-.38-.12h-.12l-.38.18-.18-.5-.07-.06-.06.06-.25.44-.13-.25-.06-.06-.06.06-.25.25-.13-.25a.07.07 0 0 0-.03-.1.07.07 0 0 0-.09.04l-.25.31v-.37a.07.07 0 0 0-.03-.1.07.07 0 0 0-.1.03l-.18.07c.06-.2.18-.5.12-.63l-.06-.12h-.06l-.25.06-.07.12-.18-.25-.07-.06-.06.06Zm-.68-.93c.5.25 1.06.25 1.18.25l.19.25h-.38a.07.07 0 0 0 .04-.1.07.07 0 0 0-.1-.03l-1.18-.25c-.13 0-.13-.06-.2-.12l.07-.13.38.13Zm.8.06.07-.06V8l.19.25h-.25Zm-.12-.06h-.12v-.07l.12.07Zm1.13-.88H19l-.06-.12.06-.07h.19v.2Zm3.18 1.25h.07l.06-.06.06-.19c.07-.06.25 0 .44.06l.56.2c.5.12 1.13 0 1.69-.07l.5-.13c.38 0 .75.13.81.38.07.13 0 .31-.31.5-.69.56-4.06.31-4.44.31l-.12-.43.12.06.07-.06v-.07l-.07-.56a.07.07 0 1 0 .13-.06c.06-.81-.13-1.25-.19-1.44l.06-.06c0 .37.25.75.32.81-.13.44.06.69.25.81Z"
          fill="#464655"/>
    <path d="M13.88 4.19c0-.69-.2-1.75-.7-1.82-.3 0-.43.2-.43.2l-.06.06-.19-.07v.25s-.31.25-.13.56c.13.25.57.32.82.44l.37.07.32.3Z"
          fill="#FFD250"/>
    <path d="M13.19 2.25c-.31-.06-.5.13-.56.19h-.26a.07.07 0 1 0-.12.06l.06.19c-.12.19-.25.44-.12.75.19.31.62.44 1 .5l.31.12c.19.07.31.32.44.5a.07.07 0 1 0 .12-.06c0-.06 0-2.25-.87-2.25Zm0 1.56c-.25-.12-.69-.19-.81-.44-.2-.3.12-.56.12-.56v-.25l.19.06.06-.06s.13-.19.44-.19c.5.07.69 1.13.69 1.82l-.32-.32-.37-.06Z"
          fill="#464655"/>
    <path d="M28.06 4.19c0-.69.19-1.75.69-1.82.31 0 .44.2.44.2l.06.06.19-.07v.25s.31.25.12.56c-.12.25-.56.32-.87.44l-.32.07-.3.3Z"
          fill="#FFD250"/>
    <path d="M27.88 4.5a.07.07 0 0 0 .08.1.07.07 0 0 0 .04-.04c.13-.18.25-.43.44-.5l.31-.12c.38-.07.81-.19.94-.5.18-.32.06-.57-.07-.75V2.5a.06.06 0 0 0-.06-.06h-.25a.6.6 0 0 0-.56-.19c-.88 0-.88 2.19-.88 2.25Zm.5-.63-.32.32c0-.69.19-1.75.69-1.82.31 0 .44.2.44.2l.06.06.19-.07v.25s.31.25.12.57c-.12.25-.56.3-.87.43l-.32.07Z"
          fill="#464655"/>
    <path d="M28.06 16.81c0 .69.19 1.75.69 1.82.31 0 .44-.2.44-.2l.06-.05.19.06v-.25s.31-.25.12-.57c-.12-.25-.56-.3-.87-.43l-.32-.07-.3-.3Z"
          fill="#FFD250"/>
    <path d="M28.75 18.75c.31.06.5-.13.56-.19h.25a.06.06 0 0 0 .07-.06v-.19c.12-.18.25-.43.06-.75-.13-.31-.57-.43-.94-.5l-.31-.12c-.19-.07-.32-.32-.44-.5a.07.07 0 0 0-.1-.03.07.07 0 0 0-.02.09c0 .06 0 2.25.87 2.25Zm-.06-1.56c.31.12.75.18.87.43.19.32-.12.57-.12.57v.25l-.19-.07-.06.07s-.13.18-.44.18c-.5-.06-.69-1.12-.69-1.8l.32.3.3.07Z"
          fill="#464655"/>
    <path d="M13.88 16.81c0 .69-.2 1.75-.7 1.82-.3 0-.43-.2-.43-.2l-.06-.05-.19.06v-.25s-.31-.25-.13-.57c.13-.25.57-.3.82-.43l.37-.07.32-.3Z"
          fill="#FFD250"/>
    <path d="M14.06 16.5a.07.07 0 0 0-.03-.1.07.07 0 0 0-.1.04c-.12.18-.24.43-.43.5l-.31.12c-.38.07-.81.19-1 .5-.13.32 0 .57.12.75l-.06.19a.07.07 0 0 0 .03.1.07.07 0 0 0 .1-.04h.24c.07.07.26.25.57.19.87 0 .87-2.19.87-2.25Zm-.5.63.32-.32c0 .69-.2 1.75-.7 1.82-.3 0-.43-.2-.43-.2l-.06-.05-.19.06v-.25s-.31-.25-.13-.57c.13-.25.57-.3.82-.43l.37-.07Z"
          fill="#464655"/>
</svg>