<svg width="32" height="21" viewBox="0 0 32 21" fill="none" xmlns="http://www.w3.org/2000/svg">
    <path d="M29.63 0H2.38A2.39 2.39 0 0 0 0 2.44v16.12A2.39 2.39 0 0 0 2.38 21h27.25A2.39 2.39 0 0 0 32 18.56V2.44A2.39 2.39 0 0 0 29.62 0Z"
          fill="#41479B"/>
    <path d="M31.94 2a2.35 2.35 0 0 0-2.32-2H29L18.75 6.69V0h-5.5v6.69L3 0h-.63C1.2 0 .25.88.08 2l8.68 5.75H0v5.5h8.75L.06 19c.19 1.13 1.13 2 2.31 2H3l10.25-6.69V21h5.5v-6.69L29 21h.63c1.18 0 2.12-.88 2.3-2l-8.68-5.75H32v-5.5h-8.75L31.94 2Z"
          fill="#F5F5F5"/>
    <path d="M17.63 0h-3.25v8.88H0v3.24h14.38V21h3.24v-8.88H32V8.88H17.62V0Z" fill="#FF4B55"/>
    <path d="m1.56 20.81 11.63-7.56h-2L.56 20.13c.25.3.63.56 1 .68Zm20.07-7.56h-2l11.3 7.31c.32-.18.57-.43.76-.81l-10.07-6.5ZM.25 1.31l9.88 6.44h2L.93.5c-.24.19-.5.5-.68.81Zm20.56 6.44L31.44.81c-.32-.25-.63-.5-1-.62L18.75 7.75h2.06Z"
          fill="#FF4B55"/>
</svg>