<svg width="32" height="21" viewBox="0 0 32 21" fill="none" xmlns="http://www.w3.org/2000/svg">
    <path d="M29.63 0H2.38A2.39 2.39 0 0 0 0 2.44v16.12A2.39 2.39 0 0 0 2.38 21h27.25A2.39 2.39 0 0 0 32 18.56V2.44A2.39 2.39 0 0 0 29.62 0Z"
          fill="#F5F5F5"/>
    <path d="M.13 1.63h31.75A2.43 2.43 0 0 0 29.63 0H2.38C1.38 0 .44.69.13 1.63ZM0 6.5h32v1.63H0V6.5Zm0-3.25h32v1.63H0V3.25Zm0 7.5c0 .31.25.56.56.56H32V9.7H0v1.06Zm0 5.38h32v1.62H0v-1.63Zm31.88 3.25H.13A2.43 2.43 0 0 0 2.38 21h27.25c1 0 1.93-.69 2.25-1.63ZM0 12.93h32v1.62H0v-1.62Z"
          fill="#FF4B55"/>
    <path d="M.56 11.31h13.81c.26 0 .5-.25.5-.56V.56c0-.31-.24-.56-.5-.56h-12A2.39 2.39 0 0 0 0 2.44v8.31c0 .31.25.56.56.56Z"
          fill="#41479B"/>
    <path d="m1.56 1.31.13.31h.37v.13L1.75 2l.13.38H1.8l-.31-.2-.31.2h-.06L1.25 2l-.31-.25v-.13h.37l.13-.3h.12Zm0 1.88.13.37h.37v.13l-.31.19.13.37c.06.06 0 .13-.07.06l-.31-.25-.31.25c-.06.07-.13 0-.06-.06l.12-.38-.31-.18v-.13h.37l.13-.37h.12Zm0 1.94.13.37h.37v.06l-.31.25.13.38c.06.06 0 .06-.07.06L1.5 6l-.31.25c-.06 0-.13 0-.06-.06l.12-.38-.31-.25V5.5h.37l.13-.38h.12Zm0 1.93.13.32h.37v.12l-.31.25.13.31c.06.06 0 .13-.07.06l-.31-.18-.31.18c-.06.07-.13 0-.06-.06l.12-.31-.31-.25v-.13h.37l.13-.3h.12Zm0 1.88.13.37h.37v.13l-.31.19.13.37c.06.06 0 .13-.07.06l-.31-.25-.31.25c-.06.06-.13 0-.06-.06l.12-.37-.31-.2v-.12h.37l.13-.37h.12Zm1.5-6.69.13.31h.37v.13l-.31.25.13.37H3.3L3 3.12l-.31.2h-.13l.13-.38-.31-.25.06-.13h.37l.13-.31h.12Zm0 1.88.13.37h.37v.13l-.31.18.13.38-.07.06L3 5.06l-.31.19c-.06.06-.13 0-.13-.06l.13-.38-.31-.18.06-.13h.37l.13-.38h.12Zm0 1.93.13.38h.37v.06l-.31.25.13.38-.07.06L3 6.94l-.31.25-.13-.07.13-.37-.31-.25.06-.06h.37l.13-.38h.12Zm0 1.94.13.31h.37v.13l-.31.25.13.31-.07.06L3 8.88l-.31.18c-.06.07-.13 0-.13-.06l.13-.31-.31-.25.06-.13h.37L2.94 8h.12ZM4.5 1.31l.13.31h.43v.13L4.75 2l.13.38H4.8l-.31-.2-.31.2h-.13L4.2 2l-.32-.25.07-.13h.37l.13-.3h.06Zm0 1.88.13.37h.43v.13l-.31.19.13.37-.07.06-.31-.25-.31.25c-.07.07-.13 0-.13-.06l.13-.38-.32-.18.07-.13h.37l.13-.37h.06Zm0 1.94.13.37h.43v.06l-.31.25.13.38-.07.06L4.5 6l-.31.25-.13-.06.13-.38-.32-.25.07-.06h.37l.13-.38h.06Zm0 1.93.13.32h.43v.12l-.31.25.13.31-.07.06-.31-.18-.31.18c-.07.07-.13 0-.13-.06l.13-.31-.32-.25.07-.13h.37l.13-.3h.06Zm0 1.88.13.37h.43v.13l-.31.19.13.37-.07.06-.31-.25-.31.25c-.07.06-.13 0-.13-.06l.13-.37-.32-.2.07-.12h.37l.13-.37h.06ZM6 2.25l.13.31h.37l.06.13-.31.25.13.37h-.13l-.31-.19-.32.2h-.06l.13-.38-.32-.25v-.13h.44l.13-.31H6Zm0 1.88.13.37h.37l.06.13-.31.18.13.38c0 .06-.07.12-.13.06l-.31-.19-.32.19-.06-.06.13-.38-.32-.18V4.5h.44l.13-.38H6Zm0 1.93.13.38h.37l.06.06-.31.25.13.38-.13.06-.31-.25-.32.25-.06-.07.13-.37-.32-.25v-.06h.44l.13-.38H6ZM6 8l.13.31h.37l.06.13-.31.25.13.31c0 .06-.07.13-.13.06l-.31-.18-.32.18L5.57 9l.13-.31-.32-.25V8.3h.44L5.94 8H6Zm1.5-6.69.13.31H8l.06.13-.31.25.06.38h-.06l-.31-.2-.32.2h-.06L7.2 2l-.32-.25v-.13h.38l.13-.3h.12Zm0 1.88.13.37H8l.06.13-.31.19.06.37c.07.06 0 .13-.06.06l-.31-.25-.32.25c-.06.07-.06 0-.06-.06l.13-.38-.32-.18v-.13h.38l.13-.37h.12Zm0 1.94.13.37H8l.06.06-.31.25.06.38c.07.06 0 .06-.06.06L7.44 6l-.32.25-.06-.06.13-.38-.32-.25V5.5h.38l.13-.38h.12Zm0 1.93.13.32H8l.06.12-.31.25.06.31c.07.06 0 .13-.06.06l-.31-.18-.32.18c-.06.07-.06 0-.06-.06l.13-.31-.32-.25v-.13h.38l.13-.3h.12Zm0 1.88.13.37H8l.06.13-.31.19.06.37c.07.06 0 .13-.06.06l-.31-.25-.32.25c-.06.06-.06 0-.06-.06l.13-.37-.32-.2v-.12h.38l.13-.37h.12ZM9 2.25l.13.31h.37v.13l-.31.25.12.37h-.06l-.31-.19-.31.2h-.07l.13-.38-.31-.25v-.13h.37l.13-.31H9Zm0 1.88.13.37h.37v.13l-.31.18.12.38c.06.06 0 .12-.06.06l-.31-.19-.31.19c-.07.06-.13 0-.07-.06l.13-.38-.31-.18V4.5h.37l.13-.38H9Zm0 1.93.13.38h.37v.06l-.31.25.12.38c.06.06 0 .06-.06.06l-.31-.25-.31.25c-.07 0-.13 0-.07-.07l.13-.37-.31-.25v-.06h.37l.13-.38H9ZM9 8l.13.31h.37v.13l-.31.25.12.31c.06.06 0 .13-.06.06l-.31-.18-.31.18c-.07.07-.13 0-.07-.06l.13-.31-.31-.25V8.3h.37L8.88 8H9Zm1.5-6.69.13.31H11v.13l-.31.25.12.38h-.06l-.31-.2-.31.2H10l.13-.38-.32-.25.06-.13h.38l.13-.3h.12Zm0 1.88.13.37H11v.13l-.31.19.12.37-.06.06-.31-.25-.31.25c-.07.07-.13 0-.13-.06l.13-.38-.32-.18.06-.13h.38l.13-.37h.12Zm0 1.94.13.37H11v.06l-.31.25.12.38-.06.06-.31-.25-.31.25-.13-.06.13-.38-.32-.25.06-.06h.38l.13-.38h.12Zm0 1.93.13.32H11v.12l-.31.25.12.31-.06.06-.31-.18-.31.18c-.07.07-.13 0-.13-.06l.13-.31-.32-.25.06-.13h.38l.13-.3h.12Zm0 1.88.13.37H11v.13l-.31.19.12.37-.06.06-.31-.25-.31.25c-.07.06-.13 0-.13-.06l.13-.37-.32-.2.06-.12h.38l.13-.37h.12Zm1.44-6.69.12.31h.38l.06.13-.31.25.12.37h-.06l-.31-.19-.31.2h-.13l.13-.38-.32-.25.06-.13h.38l.13-.31h.06Zm0 1.88.12.37h.38c.06 0 .12.06.06.13l-.31.18.12.38-.06.06-.31-.19-.31.19c-.07.06-.13 0-.13-.06l.13-.38-.32-.18.06-.13h.38l.13-.38h.06Zm0 1.93.12.38h.38l.06.06-.31.25.12.38-.06.06-.31-.25-.31.25-.13-.07.13-.37-.32-.25.06-.06h.38l.13-.38h.06Zm0 1.94.12.31h.38c.06 0 .12.07.06.13l-.31.25.12.31-.06.06-.31-.18-.31.18c-.07.07-.13 0-.13-.06l.13-.31-.32-.25.06-.13h.38l.13-.31h.06Zm1.5-6.69.12.31h.38l.06.13-.31.25.12.38h-.12l-.31-.2-.32.2H13l.13-.38-.32-.25v-.13h.44l.13-.3h.06Zm0 1.88.12.37h.38l.06.13-.31.19.12.37c0 .06-.06.13-.12.06l-.31-.25-.32.25-.06-.06.13-.38-.32-.18v-.13h.44l.13-.37h.06Zm0 1.94.12.37h.38l.06.06-.31.25.12.38-.12.06-.31-.25-.32.25-.06-.06.13-.38-.32-.25V5.5h.44l.13-.38h.06Zm0 1.93.12.32h.38l.06.12-.31.25.12.31c0 .06-.06.13-.12.06l-.31-.18-.32.18-.06-.06.13-.31-.32-.25v-.13h.44l.13-.3h.06Zm0 1.88.12.37h.38l.06.13-.31.19.12.37c0 .06-.06.13-.12.06l-.31-.25-.32.25L13 10l.13-.37-.32-.2v-.12h.44l.13-.37h.06Z"
          fill="#F5F5F5"/>
</svg>