<svg width="32" height="21" viewBox="0 0 32 21" fill="none" xmlns="http://www.w3.org/2000/svg">
    <path d="M29.63 0H2.38A2.39 2.39 0 0 0 0 2.44v3.94h32V2.44A2.39 2.39 0 0 0 29.62 0Z" fill="#82AFFF"/>
    <path d="M0 18.56A2.39 2.39 0 0 0 2.38 21h27.25A2.39 2.39 0 0 0 32 18.56v-3.93H0v3.93Z" fill="#73AF00"/>
    <path d="M0 7.25h32v6.5H0v-6.5Z" fill="#F5F5F5"/>
    <path d="M0 7v.25h32v-.88H0V7Zm0 7v.63h32v-.88H0V14Z" fill="#FF4B55"/>
    <path d="M7.06 5.25a2.06 2.06 0 1 1 .06-4.06v-.13A2.34 2.34 0 0 0 6 .75a2.42 2.42 0 0 0-2.44 2.5 2.44 2.44 0 0 0 3.56 2.13v-.13h-.06Zm1.63-.56-.07.25h-.3v.12l.18.13-.06.31h.06l.25-.13.19.13H9l-.06-.31.25-.13-.07-.12h-.25l-.12-.25h-.06Zm2.06 0-.13.25h-.24l-.07.12.25.13-.06.31c-.06 0 0 .06 0 0l.25-.13.25.13h.06L11 5.19l.19-.13v-.12h-.31l-.07-.25h-.06Zm2 0-.06.25h-.31v.12l.18.13-.06.31h.06l.25-.13.25.13h.06L13 5.19l.25-.13-.06-.12h-.25l-.13-.25h-.06Zm2.06 0-.12.25h-.25l-.06.12.24.13-.06.31h.06l.2-.13.24.13h.06l-.06-.31.19-.13v-.12h-.31l-.06-.25h-.07Zm2 0-.06.25h-.31v.12l.25.13-.13.31h.07l.25-.13.25.13h.06l-.13-.31.25-.13v-.12H17l-.13-.25h-.06ZM10.75 2.8l-.13.25h-.24l-.07.06.25.2-.06.24v.06l.25-.18.25.19.06-.07-.06-.25.19-.19v-.06h-.31l-.07-.25h-.06Zm2 0-.06.25h-.31v.06l.18.2-.06.24.06.06.25-.18.25.19.06-.07-.12-.25.25-.19-.06-.06h-.25l-.13-.25h-.06Zm2.06 0-.12.25h-.25l-.06.06.24.2-.06.24c-.06.06 0 .06.06.06l.2-.18.24.19.06-.07-.06-.25.19-.19v-.06h-.31l-.06-.25h-.07Zm2 0-.06.25h-.31v.06l.25.2-.13.24.07.06.25-.18.25.19.06-.07-.13-.25.25-.19v-.06H17l-.13-.25h-.06Z"
          fill="#F5F5F5"/>
    <path d="m12.75 4.69-.06.25h-.31v.12l.18.13-.06.31h.06l.25-.13.25.13h.06L13 5.19l.25-.13-.06-.12h-.25l-.13-.25h-.06Zm0-3.82-.06.32h-.31v.06l.18.19-.06.25.06.06.25-.19.25.19.06-.06-.12-.25.25-.19-.06-.06h-.25L12.8.88h-.06Zm2.06 3.82-.12.25h-.25l-.06.12.24.13-.06.31h.06l.2-.13.24.13h.06l-.06-.31.19-.13v-.12h-.31l-.06-.25h-.07Zm2 0-.06.25h-.31v.12l.25.13-.13.31h.07l.25-.13.25.13h.06l-.13-.31.25-.13v-.12H17l-.13-.25h-.06Zm-2-3.82-.12.32h-.25l-.06.06.24.19-.06.25c-.06.06 0 .06.06.06l.2-.19.24.19.06-.06-.06-.25.19-.19v-.06h-.31l-.06-.31h-.07Zm2 0-.06.32h-.31v.06l.25.19-.13.25.07.06.25-.19.25.19.06-.06-.13-.25.25-.19v-.06H17l-.13-.31h-.06Z"
          fill="#F5F5F5"/>
</svg>