<svg xmlns="http://www.w3.org/2000/svg" width="24" height="24" viewBox="0 0 24 24"><path d="M12 2a1 1 0 0 1 1 1v3a1 1 0 1 1-2 0V3a1 1 0 0 1 1-1M4.933 4.933a1 1 0 0 1 1.414 0l2.12 2.12a1 1 0 0 1-1.414 1.414l-2.12-2.12a1 1 0 0 1 0-1.414m14.134 0a1 1 0 0 1 0 1.414l-2.12 2.12a1 1 0 1 1-1.414-1.414l2.12-2.12a1 1 0 0 1 1.414 0M2 12a1 1 0 0 1 1-1h3a1 1 0 1 1 0 2H3a1 1 0 0 1-1-1m15 0a1 1 0 0 1 1-1h3a1 1 0 1 1 0 2h-3a1 1 0 0 1-1-1m-8.533 3.533a1 1 0 0 1 0 1.414l-2.12 2.12a1 1 0 0 1-1.414-1.414l2.12-2.12a1 1 0 0 1 1.414 0m7.066 0a1 1 0 0 1 1.414 0l2.12 2.12a1 1 0 0 1-1.414 1.414l-2.12-2.12a1 1 0 0 1 0-1.414M12 17a1 1 0 0 1 1 1v3a1 1 0 1 1-2 0v-3a1 1 0 0 1 1-1"/></svg>