<svg xmlns="http://www.w3.org/2000/svg" width="24" height="24"><path d="M20.25 21a.75.75 0 0 1-.53-.22L3.22 4.28a.75.75 0 0 1 1.06-1.06l16.5 16.5a.75.75 0 0 1-.53 1.28m-8.266-3c-1.945 0-3.82-.576-5.574-1.711-1.597-1.031-3.035-2.508-4.158-4.266v-.003c.935-1.34 1.958-2.472 3.058-3.385a.094.094 0 0 0 .007-.138l-.934-.932a.094.094 0 0 0-.127-.006c-1.168.984-2.253 2.192-3.238 3.606a1.5 1.5 0 0 0-.03 1.666c1.238 1.937 2.83 3.569 4.607 4.718 1.999 1.295 4.15 1.951 6.39 1.951a11.2 11.2 0 0 0 3.552-.59.094.094 0 0 0 .036-.155l-1.011-1.011a.19.19 0 0 0-.18-.047 9.6 9.6 0 0 1-2.398.303m11.024-6.816c-1.24-1.918-2.85-3.547-4.653-4.712-1.996-1.29-4.199-1.972-6.37-1.972a10.7 10.7 0 0 0-3.511.601.094.094 0 0 0-.036.156l1.01 1.01a.19.19 0 0 0 .182.047A9 9 0 0 1 11.984 6c1.907 0 3.777.583 5.557 1.734 1.627 1.05 3.082 2.526 4.208 4.266v.008a14.6 14.6 0 0 1-3.006 3.409.1.1 0 0 0-.034.067.1.1 0 0 0 .027.071l.933.932a.093.093 0 0 0 .126.006 16.1 16.1 0 0 0 3.218-3.678 1.51 1.51 0 0 0-.005-1.63Z"/><path d="M12 7.5q-.507 0-1.002.112a.094.094 0 0 0-.071.116.1.1 0 0 0 .024.043l5.278 5.276q.019.018.043.025a.094.094 0 0 0 .116-.072A4.5 4.5 0 0 0 12 7.5m-4.23 3.453a.1.1 0 0 0-.092-.024.09.09 0 0 0-.066.07 4.5 4.5 0 0 0 5.391 5.391.09.09 0 0 0 .07-.065.09.09 0 0 0-.023-.093l-5.28-5.28Z"/></svg>